HIERARCHY
ROOT Hips
{
	OFFSET 0.000000 0.000000 0.000000
	CHANNELS 6 Xposition Yposition Zposition Zrotation Yrotation Xrotation 
	JOINT LHipJoint
	{
		OFFSET 0.000000 0.000000 0.000000
		CHANNELS 3 Zrotation Yrotation Xrotation
		JOINT LeftUpLeg
		{
			OFFSET 1.363060 -1.794630 0.839290
			CHANNELS 3 Zrotation Yrotation Xrotation
			JOINT LeftLeg
			{
				OFFSET 2.448110 -6.726130 0.000000
				CHANNELS 3 Zrotation Yrotation Xrotation
				JOINT LeftFoot
				{
					OFFSET 2.562200 -7.039590 0.000000
					CHANNELS 3 Zrotation Yrotation Xrotation
					JOINT LeftToeBase
					{
						OFFSET 0.157640 -0.433110 2.322550
						CHANNELS 3 Zrotation Yrotation Xrotation
						End Site
						{
							OFFSET 0.000000 0.000000 0.000000
						}
					}
				}
			}
		}
	}
	JOINT RHipJoint
	{
		OFFSET 0.000000 0.000000 0.000000
		CHANNELS 3 Zrotation Yrotation Xrotation
		JOINT RightUpLeg
		{
			OFFSET -1.305520 -1.794630 0.839290
			CHANNELS 3 Zrotation Yrotation Xrotation
			JOINT RightLeg
			{
				OFFSET -2.542530 -6.985550 0.000000
				CHANNELS 3 Zrotation Yrotation Xrotation
				JOINT RightFoot
				{
					OFFSET -2.568260 -7.056230 0.000000
					CHANNELS 3 Zrotation Yrotation Xrotation
					JOINT RightToeBase
					{
						OFFSET -0.164730 -0.452590 2.363150
						CHANNELS 3 Zrotation Yrotation Xrotation
						End Site
						{
							OFFSET 0.000000 0.000000 0.000000
						}
					}
				}
			}
		}
	}
}
MOTION
Frames: 28
Frame Time: 0.008333
3.740114 17.314072 2.109450 -10.320783 -65.820368 18.799350 -10.167783 1.757861 6.608034 -3.236449 -19.655104 -15.064609 -1.080597 0.150310 17.457331 1.460663 7.332916 -9.545723 -0.259500 0.000000 -38.229000 9.356150 -2.267804 -2.619445 10.467720 -18.155658 -15.952145 0.949796 -1.861032 30.734376 -2.878947 -17.054866 3.414866 -4.054800 -0.000001 -73.607700
3.758538 17.329163 2.141890 -11.033925 -65.814452 19.188707 -10.266219 1.753785 6.529653 -3.078243 -19.499156 -14.482033 -1.053417 0.150334 17.020724 1.450941 7.350228 -9.353610 -0.233001 -0.000000 -38.113100 9.379626 -2.150795 -2.758302 10.557643 -18.327582 -17.930460 0.768894 -2.138255 34.048476 -2.824967 -16.913721 4.548816 -4.269200 0.000000 -73.091400
3.778019 17.344719 2.174275 -11.773556 -65.943942 19.721316 -10.371429 1.739569 6.436844 -2.921579 -19.213768 -14.021865 -1.023503 0.137958 16.530360 1.440407 7.361052 -9.135650 -0.201700 -0.000000 -37.990900 9.384082 -2.015901 -2.821174 10.687040 -18.233793 -20.029191 0.621601 -2.370112 36.966181 -2.760507 -16.615628 5.459292 -4.381300 0.000000 -72.234600
3.798367 17.360584 2.206600 -12.549209 -66.208900 20.407558 -10.482391 1.716226 6.330489 -2.767954 -18.792929 -13.689859 -0.991719 0.113598 15.991902 1.427846 7.357775 -8.893447 -0.165899 0.000000 -37.866000 9.366304 -1.866131 -2.811578 10.855784 -17.892612 -22.249658 0.514520 -2.562719 39.450300 -2.682666 -16.150459 6.076778 -4.374000 0.000001 -71.275699
3.819574 17.376529 2.238733 -13.366286 -66.604286 21.251550 -10.597086 1.683983 6.211358 -2.622260 -18.241875 -13.488574 -0.959216 0.078145 15.413147 1.413112 7.339387 -8.629631 -0.126300 -0.000000 -37.741300 9.324784 -1.703153 -2.733889 11.056042 -17.325660 -24.589453 0.450545 -2.721569 41.468164 -2.590466 -15.528562 6.379103 -4.252100 0.000000 -70.476100
3.841764 17.392274 2.270528 -14.229972 -67.120422 22.255530 -10.713372 1.642280 6.079448 -2.490519 -17.574354 -13.417708 -0.927214 0.033124 14.805806 1.396795 7.309326 -8.348178 -0.083600 0.000000 -37.615800 9.258516 -1.527972 -2.592634 11.275036 -16.553273 -27.038509 0.431014 -2.850668 42.989651 -2.484728 -14.773222 6.380720 -4.036200 -0.000000 -70.005901
3.865241 17.407590 2.301756 -15.144798 -67.744457 23.417847 -10.829067 1.589997 5.933789 -2.379394 -16.811368 -13.471369 -0.896931 -0.019424 14.183178 1.380240 7.275645 -8.054587 -0.038700 -0.000000 -37.483000 9.166791 -1.341688 -2.392416 11.496329 -15.594102 -29.575775 0.456664 -2.952261 43.985348 -2.367831 -13.916048 6.129017 -3.757300 -0.000000 -69.967199
3.890197 17.422266 2.332348 -16.118680 -68.459911 24.741915 -10.942788 1.525694 5.772986 -2.292315 -15.977400 -13.643700 -0.869147 -0.077122 13.560997 1.364978 7.247305 -7.754986 0.007500 0.000000 -37.342400 9.048515 -1.146727 -2.136855 11.703662 -14.463140 -32.173547 0.528441 -3.026785 44.428145 -2.243447 -12.993411 5.689799 -3.449400 0.000000 -70.354100
3.917091 17.436122 2.362211 -17.164733 -69.249396 26.230298 -11.053901 1.447409 5.594293 -2.230942 -15.098825 -13.923078 -0.844250 -0.137207 12.954532 1.352788 7.234744 -7.456149 0.054201 -0.000000 -37.188201 8.902629 -0.946613 -1.829358 11.879006 -13.172850 -34.795326 0.646720 -3.072806 44.294677 -2.116521 -12.047551 5.145647 -3.146700 -0.000000 -71.154400
3.946232 17.449078 2.391332 -18.298735 -70.094469 27.890392 -11.162585 1.353182 5.394797 -2.193227 -14.199961 -14.299909 -0.822153 -0.196942 12.379738 1.345050 7.245521 -7.164813 0.101000 -0.000000 -37.019700 8.728236 -0.746545 -1.471749 12.005436 -11.732771 -37.405444 0.811286 -3.087071 43.572749 -1.992572 -11.122102 4.576666 -2.877000 -0.000001 -72.239800
3.977752 17.461034 2.419810 -19.536325 -70.976313 29.731594 -11.269489 1.241283 5.171617 -2.175425 -13.301302 -14.765635 -0.802495 -0.253908 11.851128 1.342719 7.284082 -6.887636 0.147200 0.000000 -36.838300 8.525153 -0.552836 -1.064068 12.065475 -10.151415 -39.972951 1.020513 -3.064294 42.264297 -1.877350 -10.261509 4.057305 -2.661499 -0.000000 -73.447700
4.011851 17.471949 2.447710 -20.894583 -71.876514 31.762414 -11.375306 1.109761 4.922046 -2.172986 -12.420181 -15.313702 -0.784743 -0.306023 11.380939 1.346218 7.351565 -6.629471 0.192400 -0.000000 -36.647300 8.294211 -0.371774 -0.605022 12.040660 -8.439210 -42.476906 1.271054 -2.997172 40.387411 -1.776038 -9.506908 3.650009 -2.514100 0.000000 -74.599800
4.048195 17.481800 2.475074 -22.375285 -72.777698 33.984103 -11.479777 0.957762 4.644634 -2.183358 -11.570823 -15.938282 -0.768598 -0.352179 10.976109 1.355564 7.446958 -6.392604 0.236600 -0.000000 -36.450999 8.038225 -0.209043 -0.091813 11.910472 -6.612974 -44.910535 1.557569 -2.876411 37.975444 -1.692327 -8.890485 3.403201 -2.442700 0.000000 -75.587400
4.086363 17.490548 2.502076 -23.979989 -73.661599 36.399454 -11.582826 0.784911 4.340398 -2.202194 -10.761132 -16.645215 -0.754005 -0.391896 10.645176 1.369634 7.561171 -6.179981 0.279200 -0.000000 -36.257200 7.760825 -0.069231 0.479574 11.658028 -4.697849 -47.287155 1.873714 -2.691727 35.082145 -1.626423 -8.422454 3.333308 -2.445300 0.000000 -76.165700
4.125980 17.498187 2.528733 -25.690838 -74.514358 38.989521 -11.682039 0.591827 4.011688 -2.231888 -10.003834 -17.430806 -0.741125 -0.425765 10.382876 1.388032 7.692224 -5.987579 0.320800 -0.000000 -36.069500 7.468650 0.046907 1.109651 11.264430 -2.735399 -49.629751 2.210647 -2.432619 31.764153 -1.575389 -8.098675 3.460371 -2.518700 -0.000001 -76.502900
4.166058 17.504713 2.555295 -27.487808 -75.321460 41.744132 -11.776324 0.381107 3.665914 -2.269193 -9.301526 -18.310473 -0.730413 -0.455012 10.190202 1.408869 7.826890 -5.814080 0.361299 0.000000 -35.894300 7.167945 0.139216 1.798295 10.725613 -0.775831 -51.978469 2.560942 -2.091184 28.095693 -1.530130 -7.878066 3.759441 -2.645600 0.000000 -76.429500
4.206119 17.510135 2.581949 -29.344365 -76.073800 44.636368 -11.863424 0.156208 3.312412 -2.315098 -8.662254 -19.289543 -0.722147 -0.481375 10.056305 1.431286 7.960598 -5.652675 0.401700 -0.000000 -35.736201 6.866681 0.211607 2.537588 10.045378 1.116981 -54.368354 2.916839 -1.663472 24.142856 -1.477634 -7.706111 4.219354 -2.806000 -0.000000 -76.184200
4.245161 17.514414 2.609019 -31.228389 -76.763119 47.641278 -11.942597 -0.077720 2.964455 -2.367300 -8.088604 -20.382928 -0.716760 -0.506803 9.973494 1.453699 8.083023 -5.498264 0.442501 -0.000000 -35.598300 6.571857 0.268680 3.316035 9.244973 2.879523 -56.830067 3.273966 -1.151074 19.969168 -1.400918 -7.509466 4.816764 -2.971099 -0.000000 -75.878900
4.282616 17.517524 2.636619 -33.101174 -77.385007 50.717205 -12.013047 -0.315101 2.635821 -2.425003 -7.586272 -21.595510 -0.714459 -0.533032 9.928592 1.475206 8.189235 -5.343672 0.484700 -0.000000 -35.483600 6.290288 0.318072 4.114767 8.358782 4.450305 -59.372721 3.630740 -0.561058 15.627671 -1.281819 -7.210455 5.533955 -3.107200 0.000000 -75.699400
4.317879 17.519302 2.664811 -34.908378 -77.936810 53.804185 -12.074167 -0.549835 2.340501 -2.488560 -7.161306 -22.928579 -0.715627 -0.561493 9.909503 1.495010 8.274645 -5.183758 0.529200 0.000000 -35.389500 6.027527 0.369658 4.911284 7.431142 5.780165 -61.987804 3.987615 0.094359 11.170824 -1.104355 -6.734799 6.350329 -3.177000 -0.000000 -75.658200
4.350664 17.519524 2.693403 -36.578265 -78.418883 56.814937 -12.124988 -0.775716 2.089843 -2.560240 -6.824205 -24.365927 -0.720366 -0.593066 9.899534 1.512987 8.340240 -5.012751 0.577000 0.000000 -35.313299 5.787760 0.435974 5.677839 6.514468 6.833436 -64.643191 4.343901 0.798862 6.648664 -0.858845 -6.028769 7.261755 -3.148400 -0.000000 -75.915100
4.380737 17.517959 2.722042 -38.024811 -78.834109 59.642570 -12.164578 -0.986604 1.891701 -2.643182 -6.585307 -25.880163 -0.728758 -0.627972 9.884038 1.529116 8.388170 -4.827233 0.628800 0.000000 -35.250400 5.572192 0.529490 6.385448 5.665343 7.595344 -67.299166 4.696398 1.531034 2.134516 -0.544593 -5.057252 8.250670 -2.992100 -0.000001 -76.498600
4.408328 17.514391 2.750345 -39.172955 -79.187402 62.185335 -12.193028 -1.178020 1.748827 -2.737414 -6.450994 -27.437551 -0.740455 -0.665714 9.851650 1.543363 8.420716 -4.626321 0.684400 -0.000001 -35.195100 5.377322 0.658211 7.008939 4.938734 8.079854 -69.923784 5.039300 2.265257 -2.265870 -0.171849 -3.809308 9.274537 -2.687000 0.000000 -77.289200
4.433713 17.508669 2.778013 -39.974378 -79.484622 64.372066 -12.212260 -1.348123 1.657732 -2.839925 -6.418477 -29.006533 -0.754986 -0.705140 9.799325 1.555166 8.436185 -4.413812 0.742500 -0.000000 -35.148400 5.196097 0.820844 7.534513 4.375588 8.332628 -72.505288 5.364616 2.975731 -6.428457 0.236407 -2.322033 10.279881 -2.234900 -0.000000 -78.361000
4.457324 17.500752 2.804926 -40.434588 -79.731868 66.196289 -12.226032 -1.498929 1.609978 -2.941218 -6.475033 -30.569548 -0.771285 -0.744828 9.732958 1.563960 8.431431 -4.196801 0.800900 -0.000000 -35.105899 5.019202 1.004350 7.966262 3.981024 8.429927 -75.058546 5.664981 3.641130 -10.216798 0.649215 -0.671673 11.163558 -1.661400 -0.000001 -79.275501
4.479822 17.490683 2.831030 -40.585595 -80.006077 67.791263 -12.264210 -1.660871 1.537597 -3.043928 -6.615747 -32.160347 -0.789645 -0.783942 9.651440 1.569560 8.407922 -3.983207 0.857000 0.000000 -35.070400 4.866744 0.921736 8.504213 3.514031 8.814946 -80.141550 6.083091 3.651183 -9.097093 1.060910 1.251485 9.332452 -1.038600 0.000001 -80.025000
4.501544 17.478539 2.856417 -40.548719 -80.276553 69.207522 -12.317588 -1.824600 1.466535 -3.129715 -6.803538 -33.753004 -0.806834 -0.819417 9.581232 1.572694 8.365082 -3.784685 0.908400 0.000000 -35.039900 4.752576 0.749253 9.044920 2.999213 9.251762 -85.643987 6.543108 3.475204 -6.812469 1.319530 3.039804 6.891166 -0.463900 -0.000000 -80.426700
4.522919 17.464460 2.881131 -40.469327 -80.527256 70.549612 -12.378082 -1.986490 1.408183 -3.186810 -7.006780 -35.335534 -0.821013 -0.850130 9.543339 1.574772 8.308161 -3.610686 0.953700 -0.000000 -35.009300 4.664867 0.582120 9.535539 2.434425 9.647108 -90.571496 6.963540 3.350843 -5.059260 1.435625 4.388103 4.788417 -0.038600 0.000000 -80.432300
